<svg viewBox="0 0 92 11" xmlns="http://www.w3.org/2000/svg" preserveAspectRatio="xMidYMid meet">
<path d="M86.6096 9.06C86.3776 9.06 86.2616 8.992 86.2616 8.856C86.2616 8.776 86.3096 8.648 86.4056 8.472C86.7736 7.816 87.1016 7.236 87.3896 6.732C87.6856 6.22 87.9456 5.788 88.1696 5.436C89.1216 3.908 89.7936 3.08 90.1856 2.952C90.2016 2.952 90.2136 2.952 90.2216 2.952C90.2296 2.944 90.2376 2.94 90.2456 2.94C90.3496 2.94 90.4176 3.024 90.4496 3.192C90.4256 3.36 90.0096 3.968 89.2016 5.016C88.7776 5.552 88.4456 5.996 88.2056 6.348C87.9736 6.692 87.8296 6.944 87.7736 7.104C88.0376 6.912 88.3216 6.708 88.6256 6.492C88.9296 6.276 89.2256 6.072 89.5136 5.88C89.8016 5.68 90.0616 5.52 90.2936 5.4C90.5256 5.272 90.7056 5.2 90.8336 5.184C90.8496 5.184 90.8696 5.184 90.8936 5.184C90.9176 5.176 90.9336 5.172 90.9416 5.172C91.1656 5.172 91.2776 5.276 91.2776 5.484C91.2776 5.54 91.2056 5.664 91.0616 5.856C90.9176 6.048 90.6976 6.344 90.4016 6.744C89.8736 7.448 89.6096 7.976 89.6096 8.328C89.6096 8.512 89.6776 8.604 89.8136 8.604C89.9576 8.596 90.1216 8.532 90.3056 8.412C90.4976 8.292 90.6896 8.144 90.8816 7.968C91.0736 7.792 91.2456 7.62 91.3976 7.452C91.5576 7.276 91.6776 7.14 91.7576 7.044C91.8296 6.972 91.8856 6.936 91.9256 6.936C91.9576 6.936 91.9736 6.952 91.9736 6.984C91.9736 7.048 91.9416 7.124 91.8776 7.212C91.7816 7.332 91.6376 7.488 91.4456 7.68C91.2616 7.872 91.0576 8.068 90.8336 8.268C90.6176 8.46 90.4096 8.624 90.2096 8.76C90.0176 8.888 89.8736 8.952 89.7776 8.952C89.3056 8.952 89.0696 8.676 89.0696 8.124C89.0696 7.812 89.2136 7.404 89.5016 6.9C89.6136 6.708 89.7296 6.516 89.8496 6.324C89.9696 6.132 90.0896 5.94 90.2096 5.748C89.1856 6.26 88.2576 7.016 87.4256 8.016C87.3216 8.16 87.2136 8.316 87.1016 8.484C86.9896 8.644 86.8896 8.78 86.8016 8.892C86.7136 9.004 86.6496 9.06 86.6096 9.06Z" fill="black"/>
<path d="M84.0011 9.024C83.6251 9.024 83.3451 8.9 83.1611 8.652C82.9851 8.404 82.8411 8.06 82.7291 7.62C82.5851 7.764 82.4851 7.836 82.4291 7.836C82.3891 7.836 82.3691 7.804 82.3691 7.74C82.3691 7.692 82.3891 7.648 82.4291 7.608C82.4291 7.608 82.5291 7.484 82.7291 7.236C82.9371 6.988 83.2851 6.64 83.7731 6.192L85.2851 4.776C85.4931 4.576 85.6571 4.424 85.7771 4.32C85.9051 4.216 85.9971 4.164 86.0531 4.164C86.3091 4.164 86.4371 4.26 86.4371 4.452C86.4371 4.548 86.3851 4.66 86.2811 4.788C86.2011 4.884 86.1411 4.96 86.1011 5.016C86.0691 5.064 86.0491 5.092 86.0411 5.1C85.8971 5.348 85.7651 5.792 85.6451 6.432C85.5571 6.904 85.4811 7.292 85.4171 7.596C85.3531 7.9 85.3011 8.12 85.2611 8.256C85.5971 8.248 85.9291 8.144 86.2571 7.944C86.5851 7.744 86.9371 7.416 87.3131 6.96C87.3291 6.944 87.3531 6.92 87.3851 6.888C87.4171 6.856 87.4491 6.84 87.4811 6.84C87.5291 6.84 87.5531 6.86 87.5531 6.9C87.5531 6.94 87.5411 6.98 87.5171 7.02C87.4931 7.06 87.4691 7.096 87.4451 7.128C87.1971 7.424 86.9651 7.668 86.7491 7.86C86.5331 8.044 86.3051 8.192 86.0651 8.304C85.8251 8.408 85.5411 8.496 85.2131 8.568L84.8291 8.82C84.7251 8.892 84.6011 8.944 84.4571 8.976C84.3131 9.008 84.1611 9.024 84.0011 9.024ZM84.1451 8.412C84.3291 8.412 84.4811 8.368 84.6011 8.28C84.6891 8.232 84.7731 8.1 84.8531 7.884C84.9411 7.66 85.0251 7.384 85.1051 7.056C85.1691 6.776 85.2171 6.504 85.2491 6.24C85.2891 5.968 85.3251 5.708 85.3571 5.46L85.4051 5.052C85.2211 5.188 84.9891 5.384 84.7091 5.64C84.4291 5.896 84.1531 6.164 83.8811 6.444C83.6091 6.724 83.4331 6.932 83.3531 7.068C83.2731 7.196 83.2291 7.292 83.2211 7.356C83.1891 7.676 83.2651 7.932 83.4491 8.124C83.6411 8.316 83.8731 8.412 84.1451 8.412Z" fill="black"/>
<path d="M77.7854 9.06C77.5534 9.06 77.4374 8.992 77.4374 8.856C77.4374 8.776 77.4854 8.648 77.5814 8.472C77.9494 7.816 78.2774 7.236 78.5654 6.732C78.8614 6.22 79.1214 5.788 79.3454 5.436C80.2974 3.908 80.9694 3.08 81.3614 2.952C81.3774 2.952 81.3894 2.952 81.3974 2.952C81.4054 2.944 81.4134 2.94 81.4214 2.94C81.5254 2.94 81.5934 3.024 81.6254 3.192C81.6014 3.36 81.1854 3.968 80.3774 5.016C79.9534 5.552 79.6214 5.996 79.3814 6.348C79.1494 6.692 79.0054 6.944 78.9494 7.104C79.2134 6.912 79.4974 6.708 79.8014 6.492C80.1054 6.276 80.4014 6.072 80.6894 5.88C80.9774 5.68 81.2374 5.52 81.4694 5.4C81.7014 5.272 81.8814 5.2 82.0094 5.184C82.0254 5.184 82.0454 5.184 82.0694 5.184C82.0934 5.176 82.1094 5.172 82.1174 5.172C82.3414 5.172 82.4534 5.276 82.4534 5.484C82.4534 5.54 82.3814 5.664 82.2374 5.856C82.0934 6.048 81.8734 6.344 81.5774 6.744C81.0494 7.448 80.7854 7.976 80.7854 8.328C80.7854 8.512 80.8534 8.604 80.9894 8.604C81.1334 8.596 81.2974 8.532 81.4814 8.412C81.6734 8.292 81.8654 8.144 82.0574 7.968C82.2494 7.792 82.4214 7.62 82.5734 7.452C82.7334 7.276 82.8534 7.14 82.9334 7.044C83.0054 6.972 83.0614 6.936 83.1014 6.936C83.1334 6.936 83.1494 6.952 83.1494 6.984C83.1494 7.048 83.1174 7.124 83.0534 7.212C82.9574 7.332 82.8134 7.488 82.6214 7.68C82.4374 7.872 82.2334 8.068 82.0094 8.268C81.7934 8.46 81.5854 8.624 81.3854 8.76C81.1934 8.888 81.0494 8.952 80.9534 8.952C80.4814 8.952 80.2454 8.676 80.2454 8.124C80.2454 7.812 80.3894 7.404 80.6774 6.9C80.7894 6.708 80.9054 6.516 81.0254 6.324C81.1454 6.132 81.2654 5.94 81.3854 5.748C80.3614 6.26 79.4334 7.016 78.6014 8.016C78.4974 8.16 78.3894 8.316 78.2774 8.484C78.1654 8.644 78.0654 8.78 77.9774 8.892C77.8894 9.004 77.8254 9.06 77.7854 9.06Z" fill="black"/>
<path d="M73.3118 9.05999C73.0718 9.05999 72.8678 8.99599 72.6998 8.86799C72.5318 8.73199 72.4358 8.56799 72.4118 8.37599C72.3798 8.11999 72.4158 7.86399 72.5198 7.60799C72.6318 7.34399 72.7798 7.09199 72.9638 6.85199C73.1558 6.61199 73.3598 6.38799 73.5758 6.17999C74.4238 5.33199 75.1878 4.90799 75.8678 4.90799C76.0998 4.90799 76.2558 4.96799 76.3358 5.08799C76.3678 5.12799 76.4038 5.21999 76.4438 5.36399C77.3398 3.90799 77.9638 3.17999 78.3158 3.17999C78.3958 3.17999 78.4798 3.19999 78.5678 3.23999C78.6558 3.27999 78.6998 3.33199 78.6998 3.39599C78.6998 3.43599 78.6798 3.48799 78.6398 3.55199C78.3998 3.84799 78.1598 4.14399 77.9198 4.43999C77.6798 4.72799 77.4438 5.01999 77.2118 5.31599C76.8198 5.81199 76.5038 6.24399 76.2638 6.61199C76.0238 6.97999 75.8518 7.29199 75.7478 7.54799C75.7158 7.62799 75.6838 7.72799 75.6518 7.84799C75.6278 7.95999 75.6158 8.07599 75.6158 8.19599C75.6158 8.34799 75.6478 8.47999 75.7118 8.59199C75.7758 8.70399 75.8918 8.75999 76.0598 8.75999C76.3238 8.75999 76.6478 8.63199 77.0318 8.37599C77.4158 8.11999 77.8638 7.69999 78.3758 7.11599C78.4078 7.08399 78.4358 7.05599 78.4598 7.03199C78.4918 7.00799 78.5238 6.99199 78.5558 6.98399C78.6278 6.96799 78.6638 6.98399 78.6638 7.03199C78.6638 7.05599 78.6398 7.09999 78.5918 7.16399C78.3438 7.45999 78.0678 7.75199 77.7638 8.03999C77.4598 8.32799 77.1478 8.56799 76.8278 8.75999C76.5158 8.94399 76.2238 9.03599 75.9518 9.03599C75.6798 9.03599 75.4878 8.94399 75.3758 8.75999C75.2638 8.57599 75.2078 8.36799 75.2078 8.13599C75.2078 7.89599 75.2518 7.67599 75.3398 7.47599L74.3678 8.44799C74.1518 8.66399 73.9518 8.81999 73.7678 8.91599C73.5918 9.01199 73.4398 9.05999 73.3118 9.05999ZM73.2038 8.79599C73.5478 8.79599 74.1198 8.32399 74.9198 7.37999C74.9598 7.33199 75.0998 7.15599 75.3398 6.85199C75.5798 6.53999 75.9198 6.08799 76.3598 5.49599C76.3038 5.39999 76.2078 5.35199 76.0718 5.35199C75.5758 5.35199 74.9118 5.74399 74.0798 6.52799C73.2958 7.25599 72.9038 7.86799 72.9038 8.36399C72.9038 8.65199 73.0038 8.79599 73.2038 8.79599Z" fill="black"/>
<path d="M67.9742 9.13201C67.6142 9.13201 67.4342 8.90401 67.4342 8.44801C67.4342 8.27201 67.4862 8.06401 67.5902 7.82401C67.7022 7.57601 67.8582 7.31601 68.0582 7.04401C68.0582 7.04401 67.9862 7.11201 67.8422 7.24801C67.6982 7.38401 67.5342 7.55601 67.3502 7.76401C67.3182 7.79601 67.2782 7.81201 67.2302 7.81201C67.1982 7.81201 67.1822 7.79201 67.1822 7.75201C67.1822 7.71201 67.2182 7.64401 67.2902 7.54801L68.9462 5.60401C69.1542 5.36401 69.3822 5.24401 69.6302 5.24401C69.8142 5.24401 69.9062 5.31601 69.9062 5.46001C69.9062 5.51601 69.8822 5.56801 69.8342 5.61601C69.6822 5.76001 69.4942 5.96401 69.2702 6.22801C69.0542 6.49201 68.8422 6.77601 68.6342 7.08001C68.4262 7.38401 68.2502 7.67601 68.1062 7.95601C67.9702 8.22801 67.9022 8.44801 67.9022 8.61601C67.9022 8.76001 67.9502 8.83201 68.0462 8.83201C68.1022 8.83201 68.1902 8.81201 68.3102 8.77201C68.4302 8.72401 68.5902 8.63201 68.7902 8.49601C68.9902 8.35201 69.2302 8.13201 69.5102 7.83601C69.5582 7.78801 69.6862 7.64401 69.8942 7.40401C70.1022 7.16401 70.3822 6.82001 70.7342 6.37201C71.3582 5.59601 71.7662 5.20801 71.9582 5.20801C72.2222 5.20801 72.3662 5.31601 72.3902 5.53201C72.4062 5.60401 72.2382 5.84001 71.8862 6.24001C71.4302 6.79201 71.1182 7.18801 70.9502 7.42801C70.6382 7.88401 70.4822 8.24001 70.4822 8.49601C70.4822 8.67201 70.5422 8.76001 70.6622 8.76001C70.7822 8.76001 70.9342 8.70401 71.1182 8.59201C71.3102 8.47201 71.5102 8.32401 71.7182 8.14801C71.9262 7.96401 72.1262 7.77601 72.3182 7.58401C72.5182 7.38401 72.6902 7.20001 72.8342 7.03201C72.8822 6.97601 72.9302 6.94801 72.9782 6.94801C73.0262 6.94801 73.0502 6.97201 73.0502 7.02001C73.0502 7.03601 73.0462 7.06001 73.0382 7.09201C73.0302 7.12401 73.0062 7.16001 72.9662 7.20001C72.8382 7.34401 72.6742 7.52401 72.4742 7.74001C72.2742 7.94801 72.0582 8.15601 71.8262 8.36401C71.5942 8.57201 71.3702 8.74401 71.1542 8.88001C70.9382 9.01601 70.7542 9.08401 70.6022 9.08401C70.4182 9.08401 70.2582 9.03601 70.1222 8.94001C69.9862 8.83601 69.9182 8.69601 69.9182 8.52001C69.9182 8.34401 69.9462 8.16801 70.0022 7.99201C70.0582 7.80801 70.1022 7.65201 70.1342 7.52401C69.7582 7.96401 69.4262 8.30001 69.1382 8.53201C68.8582 8.76401 68.6222 8.92001 68.4302 9.00001C68.2382 9.08801 68.0862 9.13201 67.9742 9.13201Z" fill="black"/>
<path d="M65.1213 9.80399C64.9773 9.80399 64.8813 9.76799 64.8333 9.69599C64.6893 9.48799 64.6173 9.23599 64.6173 8.93999C64.6173 8.25199 64.9853 7.26399 65.7213 5.97599C66.1933 5.16799 66.9213 4.07999 67.9053 2.71199C67.4893 3.05599 67.0372 3.45199 66.5492 3.89999C66.0612 4.34799 65.5372 4.84399 64.9772 5.38799C64.2492 6.09999 63.6533 6.72799 63.1893 7.27199C62.7333 7.80799 62.4053 8.25199 62.2052 8.60399C61.9973 8.97999 61.7452 9.16799 61.4492 9.16799C61.3132 9.16799 61.2453 9.11999 61.2453 9.02399C61.2453 8.99199 61.2573 8.95999 61.2812 8.92799C61.4173 8.71199 61.5932 8.42799 61.8092 8.07599C62.0252 7.71599 62.2813 7.28799 62.5773 6.79199C63.4413 5.28799 64.0613 4.09199 64.4373 3.20399C64.5733 2.86799 64.6413 2.62399 64.6413 2.47199C64.6413 2.34399 64.5973 2.27999 64.5093 2.27999C64.3893 2.27999 64.2013 2.38799 63.9453 2.60399C63.0573 3.34799 62.0613 4.38399 60.9573 5.71199C60.4933 6.26399 60.0852 6.77599 59.7332 7.24799C59.3892 7.71199 59.0973 8.13199 58.8573 8.50799C58.6653 8.80399 58.5693 9.01599 58.5693 9.14399C58.5693 9.19199 58.5852 9.22399 58.6172 9.23999C58.6572 9.26399 58.6772 9.27599 58.6772 9.27599C58.6772 9.28399 58.6053 9.34399 58.4613 9.45599C58.3333 9.51999 58.1893 9.55199 58.0293 9.55199C57.7013 9.55199 57.5612 9.47599 57.6092 9.32399C57.7212 8.96399 58.0933 8.31199 58.7253 7.36799C59.5493 6.14399 60.0853 5.30799 60.3333 4.85999C60.8693 3.89199 61.1372 3.11999 61.1372 2.54399C61.1372 2.14399 61.0332 1.85999 60.8252 1.69199C60.6172 1.52399 60.3013 1.43999 59.8773 1.43999C58.9413 1.43999 57.9733 1.84399 56.9733 2.65199C56.5413 3.00399 56.1372 3.40399 55.7612 3.85199C55.3852 4.29199 55.0813 4.75199 54.8493 5.23199C54.6173 5.71199 54.5013 6.18399 54.5013 6.64799C54.5013 7.47999 54.8932 7.89599 55.6772 7.89599C56.5972 7.89599 57.3093 7.56399 57.8133 6.89999C58.0053 6.63599 58.1012 6.38799 58.1012 6.15599C58.1012 6.01999 58.0613 5.92799 57.9813 5.87999C57.9733 5.87199 57.9692 5.85999 57.9692 5.84399C57.9692 5.81199 57.9933 5.79599 58.0413 5.79599C58.2493 5.79599 58.3532 5.93199 58.3532 6.20399C58.3532 6.37199 58.2812 6.58399 58.1372 6.83999C57.9532 7.15999 57.6772 7.43199 57.3092 7.65599C56.8453 7.94399 56.3333 8.08799 55.7733 8.08799C55.2293 8.08799 54.7933 7.91599 54.4653 7.57199C54.1373 7.22799 53.9733 6.77599 53.9733 6.21599C53.9733 4.95199 54.7973 3.65999 56.4453 2.33999C56.7493 2.09999 57.1092 1.89599 57.5252 1.72799C57.9492 1.55199 58.3853 1.41999 58.8333 1.33199C59.2813 1.23599 59.6933 1.18799 60.0693 1.18799C60.6133 1.18799 61.0253 1.27999 61.3053 1.46399C61.5933 1.63999 61.7373 1.95199 61.7373 2.39999C61.7373 2.95999 61.5092 3.71599 61.0532 4.66799C60.9092 4.96399 60.5852 5.50399 60.0812 6.28799L61.0052 5.11199C61.2372 4.80799 61.5493 4.44799 61.9412 4.03199C62.3333 3.61599 62.7973 3.14399 63.3333 2.61599C63.5653 2.39199 63.8293 2.19999 64.1253 2.03999C64.4213 1.87999 64.6733 1.79999 64.8813 1.79999C65.1693 1.79999 65.3132 1.95199 65.3132 2.25599C65.3132 2.51999 65.2053 2.87999 64.9893 3.33599C64.7013 3.94399 64.3413 4.65199 63.9093 5.45999C63.7733 5.70799 63.6813 5.91999 63.6333 6.09599C63.5853 6.27199 63.5533 6.37199 63.5373 6.39599C63.5693 6.35599 63.6453 6.26399 63.7653 6.11999C63.8933 5.96799 64.0693 5.76399 64.2933 5.50799C64.5653 5.20399 64.8893 4.87199 65.2653 4.51199C65.6413 4.14399 66.0732 3.75199 66.5612 3.33599L68.4812 1.75199C68.6332 1.62399 68.7693 1.55999 68.8893 1.55999C69.0013 1.55999 69.0812 1.62799 69.1292 1.76399C69.1852 1.89199 69.2412 2.05999 69.2972 2.26799C69.3372 2.40399 69.1453 2.68799 68.7213 3.11999C67.7213 4.14399 66.8572 5.28799 66.1292 6.55199C65.4652 7.71999 65.1332 8.56399 65.1332 9.08399C65.1332 9.31599 65.2093 9.43199 65.3613 9.43199C65.4573 9.43199 65.6973 9.34799 66.0813 9.17999C66.4173 9.02799 66.6372 8.93999 66.7412 8.91599C66.7812 8.93199 66.8013 8.95199 66.8013 8.97599C66.8013 9.09599 66.5893 9.26399 66.1653 9.47999C65.7493 9.69599 65.4013 9.80399 65.1213 9.80399Z" fill="black"/>
<path d="M48.9323 9.15601C48.6763 9.15601 48.4443 9.07601 48.2363 8.91601C48.0283 8.74801 47.9243 8.52801 47.9243 8.25601C47.9243 7.68801 48.2723 7.04001 48.9683 6.31201C49.6803 5.57601 50.3163 5.20801 50.8763 5.20801C51.0603 5.20801 51.2083 5.26001 51.3203 5.36401C51.4403 5.46001 51.5003 5.58001 51.5003 5.72401C51.5003 6.17201 51.1443 6.61201 50.4323 7.04401C49.8003 7.42801 49.2683 7.62001 48.8363 7.62001C48.7723 7.62001 48.7163 7.61201 48.6683 7.59601C48.5483 7.81201 48.4883 8.04001 48.4883 8.28001C48.4883 8.69601 48.6843 8.90401 49.0763 8.90401C49.4763 8.90401 49.9923 8.63601 50.6243 8.10001C51.1123 7.70801 51.5283 7.29201 51.8723 6.85201C51.9443 6.75601 52.0083 6.70801 52.0643 6.70801C52.1123 6.70801 52.1363 6.73201 52.1363 6.78001C52.1363 6.82801 52.1043 6.89601 52.0403 6.98401C51.8163 7.28001 51.5763 7.55201 51.3203 7.80001C51.0643 8.04801 50.7883 8.27601 50.4923 8.48401C49.8763 8.93201 49.3563 9.15601 48.9323 9.15601ZM49.0043 7.35601C49.3083 7.35601 49.7043 7.20401 50.1923 6.90001C50.3523 6.78801 50.5083 6.66401 50.6603 6.52801C50.8203 6.38401 50.9483 6.24001 51.0443 6.09601C51.1483 5.95201 51.2003 5.82401 51.2003 5.71201C51.2003 5.60801 51.1163 5.55601 50.9483 5.55601C50.7083 5.55601 50.3723 5.73601 49.9403 6.09601C49.7323 6.27201 49.5323 6.46401 49.3403 6.67201C49.1483 6.88001 48.9843 7.10001 48.8483 7.33201C48.8963 7.34801 48.9483 7.35601 49.0043 7.35601Z" fill="black"/>
<path d="M46.9619 10.308C46.5139 10.308 46.0539 10.24 45.5819 10.104C45.1099 9.97599 44.6619 9.78399 44.2379 9.52799C43.8219 9.27199 43.4619 8.96799 43.1579 8.61599C42.5179 9.25599 41.9099 9.57599 41.3339 9.57599C41.0379 9.57599 40.8179 9.48799 40.6739 9.31199C40.5299 9.14399 40.4579 8.92399 40.4579 8.65199C40.4579 8.14799 40.6499 7.55599 41.0339 6.87599C41.3939 6.23599 41.6819 5.89999 41.8979 5.86799C42.0579 5.86799 42.2219 6.03199 42.3899 6.35999L43.1459 7.82399C43.5699 7.25599 44.0139 6.64399 44.4779 5.98799C43.8219 5.69199 43.4939 5.26399 43.4939 4.70399C43.4939 4.46399 43.5499 4.24399 43.6619 4.04399C43.7819 3.83599 43.9339 3.66799 44.1179 3.53999C44.3019 3.41199 44.4899 3.34799 44.6819 3.34799C44.9459 3.34799 45.1379 3.47199 45.2579 3.71999C45.2739 3.74399 45.2739 3.76799 45.2579 3.79199C45.2499 3.81599 45.2379 3.82399 45.2219 3.81599C45.1659 3.75199 45.0859 3.69599 44.9819 3.64799C44.8779 3.59999 44.7819 3.57599 44.6939 3.57599C44.5259 3.57599 44.3699 3.64399 44.2259 3.77999C44.0899 3.90799 43.9819 4.05999 43.9019 4.23599C43.8299 4.41199 43.8019 4.56799 43.8179 4.70399C43.8179 5.11199 44.1059 5.46799 44.6819 5.77199C44.8179 5.57199 44.9659 5.35599 45.1259 5.12399C45.2859 4.88399 45.4579 4.62799 45.6419 4.35599C47.2339 2.01999 48.5579 0.85199 49.6139 0.85199C50.3579 0.85199 50.7299 1.19999 50.7299 1.89599C50.7299 2.52799 50.4219 3.27199 49.8059 4.12799C49.5019 4.55199 49.1179 4.93199 48.6539 5.26799C48.1899 5.60399 47.6979 5.87199 47.1779 6.07199C46.6659 6.26399 46.1699 6.35999 45.6899 6.35999C45.5779 6.35999 45.4659 6.35599 45.3539 6.34799C45.2499 6.33199 45.1539 6.30799 45.0659 6.27599C44.8579 6.54799 44.6179 6.85199 44.3459 7.18799C44.0739 7.52399 43.7739 7.89599 43.4459 8.30399C43.5899 8.50399 43.7939 8.70399 44.0579 8.90399C44.3299 9.10399 44.6339 9.27999 44.9699 9.43199C45.3059 9.59199 45.6379 9.71999 45.9659 9.81599C46.2939 9.91199 46.5899 9.95999 46.8539 9.95999C47.1579 9.95999 47.4379 9.92399 47.6939 9.85199C47.9499 9.78799 48.1579 9.67999 48.3179 9.52799C48.4779 9.38399 48.5579 9.19199 48.5579 8.95199C48.5579 8.91999 48.5579 8.88799 48.5579 8.85599C48.5579 8.82399 48.5539 8.79199 48.5459 8.75999C48.5459 8.74399 48.5419 8.73199 48.5339 8.72399C48.5339 8.71599 48.5339 8.70799 48.5339 8.69999C48.5339 8.61999 48.5579 8.57999 48.6059 8.57999C48.6859 8.57999 48.7499 8.64399 48.7979 8.77199C48.8459 8.89199 48.8699 8.98799 48.8699 9.05999C48.8699 9.30799 48.7739 9.52399 48.5819 9.70799C48.3899 9.89999 48.1459 10.048 47.8499 10.152C47.5619 10.256 47.2659 10.308 46.9619 10.308ZM45.6059 6.04799C46.0139 6.04799 46.4499 5.95599 46.9139 5.77199C47.3779 5.57999 47.8139 5.33199 48.2219 5.02799C48.6379 4.71599 48.9739 4.37999 49.2299 4.01999C49.9579 3.00399 50.3219 2.23199 50.3219 1.70399C50.3219 1.47999 50.2579 1.31599 50.1299 1.21199C50.0019 1.10799 49.8459 1.05599 49.6619 1.05599C49.2619 1.05599 48.7659 1.39199 48.1739 2.06399C47.9899 2.27999 47.7459 2.59199 47.4419 2.99999C47.1459 3.39999 46.7939 3.89599 46.3859 4.48799C46.2259 4.71999 46.0499 4.96399 45.8579 5.21999C45.6659 5.47599 45.4659 5.73999 45.2579 6.01199C45.3699 6.03599 45.4859 6.04799 45.6059 6.04799ZM41.3579 9.25199C41.5099 9.25199 41.6779 9.19599 41.8619 9.08399C42.0539 8.97999 42.2379 8.84799 42.4139 8.68799C42.5899 8.52799 42.7339 8.37199 42.8459 8.21999C42.7339 8.05999 42.6139 7.86799 42.4859 7.64399C42.3579 7.41999 42.2179 7.15999 42.0659 6.86399C41.8819 6.47999 41.7419 6.30799 41.6459 6.34799C41.5019 6.37199 41.3459 6.62799 41.1779 7.11599C41.0099 7.60399 40.9259 8.05999 40.9259 8.48399C40.9259 8.99599 41.0699 9.25199 41.3579 9.25199Z" fill="black"/>
<path d="M35.7683 9.06002C35.4243 9.06002 35.1883 8.97201 35.0603 8.79601C34.9323 8.61201 34.8683 8.36802 34.8683 8.06402C34.8683 7.72802 34.9723 7.32802 35.1803 6.86402C35.2603 6.68002 35.3443 6.51602 35.4323 6.37201C35.5203 6.22002 35.6123 6.08001 35.7083 5.95201C35.6763 5.96001 35.6483 5.96402 35.6243 5.96402C35.6003 5.96402 35.5763 5.96402 35.5523 5.96402C35.3603 5.96402 35.2003 5.82801 35.0723 5.55602L34.1843 6.70801C33.7123 7.32402 33.4243 7.63202 33.3203 7.63202C33.2803 7.63202 33.2603 7.61601 33.2603 7.58401C33.2603 7.54401 33.2803 7.49201 33.3203 7.42801C33.3443 7.38001 33.3923 7.31602 33.4643 7.23602C33.7683 6.88402 34.0483 6.53602 34.3043 6.19202C34.5603 5.84802 34.7723 5.51202 34.9403 5.18402C35.1243 4.48802 35.3563 4.14001 35.6363 4.14001C35.8203 4.14001 35.9123 4.22402 35.9123 4.39202C35.9123 4.54402 35.8123 4.74401 35.6123 4.99201C35.4203 5.24002 35.3243 5.36802 35.3243 5.37602C35.3243 5.54402 35.4483 5.62802 35.6963 5.62802C35.8403 5.62802 36.0003 5.57602 36.1763 5.47202L36.4883 5.28001C36.5043 5.27201 36.5283 5.26801 36.5603 5.26801C36.6563 5.26801 36.7403 5.30801 36.8123 5.38801C36.8843 5.46801 36.9083 5.54001 36.8843 5.60401L36.0563 6.64802C35.5443 7.30402 35.2883 7.83202 35.2883 8.23202C35.2883 8.59202 35.4643 8.77202 35.8163 8.77202C36.0563 8.77202 36.3123 8.70002 36.5843 8.55602C36.8643 8.41201 37.1323 8.23602 37.3883 8.02802C37.6523 7.81202 37.8723 7.60402 38.0483 7.40402L38.3363 7.06802C38.3523 7.05202 38.3723 7.03201 38.3963 7.00801C38.4203 6.98401 38.4403 6.97201 38.4563 6.97201C38.5123 6.97201 38.5403 7.00001 38.5403 7.05602C38.5403 7.07201 38.5323 7.10002 38.5163 7.14002C38.5003 7.18002 38.4723 7.22402 38.4323 7.27202L38.0483 7.70401C37.8643 7.91201 37.6363 8.12402 37.3643 8.34002C37.1003 8.54802 36.8243 8.72002 36.5363 8.85602C36.2563 8.99202 36.0003 9.06002 35.7683 9.06002Z" fill="black"/>
<path d="M29.179 9.05999C28.987 9.05999 28.795 8.99199 28.603 8.85599C28.411 8.71999 28.303 8.55999 28.279 8.37599C28.199 7.75999 28.587 7.02799 29.443 6.17999C30.291 5.33199 31.055 4.90799 31.735 4.90799C31.919 4.90799 32.063 4.95199 32.167 5.03999C32.223 5.09599 32.263 5.17199 32.287 5.26799C32.319 5.36399 32.343 5.41199 32.359 5.41199C32.391 5.41199 32.419 5.40799 32.443 5.39999C32.467 5.38399 32.495 5.37599 32.527 5.37599C32.623 5.37599 32.707 5.41199 32.779 5.48399C32.851 5.55599 32.891 5.61999 32.899 5.67599C32.907 5.69199 32.651 6.08799 32.131 6.86399C31.611 7.62399 31.375 8.13999 31.423 8.41199C31.463 8.59599 31.551 8.68799 31.687 8.68799C32.103 8.68799 32.863 7.99999 33.967 6.62399C33.991 6.59199 34.015 6.57599 34.039 6.57599C34.079 6.57599 34.099 6.60399 34.099 6.65999C34.099 6.72399 34.063 6.80399 33.991 6.89999C32.975 8.26799 32.195 8.95199 31.651 8.95199C31.579 8.95199 31.511 8.93999 31.447 8.91599C31.095 8.77999 30.919 8.51599 30.919 8.12399C30.919 7.98799 30.935 7.85199 30.967 7.71599L30.223 8.43599C29.999 8.65999 29.795 8.81999 29.611 8.91599C29.435 9.01199 29.291 9.05999 29.179 9.05999ZM29.071 8.79599C29.535 8.79599 30.167 8.28799 30.967 7.27199L32.239 5.51999C32.175 5.40799 32.071 5.35199 31.927 5.35199C31.439 5.35199 30.779 5.74399 29.947 6.52799C29.083 7.32799 28.695 7.98799 28.783 8.50799C28.823 8.69999 28.919 8.79599 29.071 8.79599Z" fill="black"/>
<path d="M23.6367 9.024C23.4447 9.024 23.3487 8.916 23.3487 8.7C23.4367 8.252 23.6167 7.748 23.8887 7.188C24.0167 6.916 24.1447 6.648 24.2727 6.384C24.4087 6.12 24.5407 5.852 24.6687 5.58C24.3727 5.78 24.0767 6.004 23.7807 6.252C23.4847 6.492 23.1967 6.764 22.9167 7.068C22.5887 7.42 22.2087 7.872 21.7767 8.424C21.4647 8.816 21.2847 9.012 21.2367 9.012C21.1247 9.012 21.0327 8.96 20.9607 8.856C20.8887 8.752 20.8527 8.664 20.8527 8.592C20.8527 8.488 20.9447 8.22 21.1287 7.788C21.1847 7.652 21.2407 7.52 21.2967 7.392C21.3607 7.256 21.4207 7.124 21.4767 6.996L20.7567 7.752C20.7407 7.768 20.6927 7.816 20.6127 7.896C20.5327 7.976 20.4687 8.016 20.4207 8.016C20.3807 8.016 20.3607 7.988 20.3607 7.932C20.3607 7.916 20.3687 7.896 20.3847 7.872C20.3927 7.84 20.4167 7.804 20.4567 7.764C20.5767 7.644 20.7007 7.516 20.8287 7.38C20.9567 7.244 21.0887 7.088 21.2247 6.912C21.3287 6.776 21.4767 6.576 21.6687 6.312C21.8687 6.04 22.1127 5.7 22.4007 5.292C22.4887 5.172 22.6127 5.112 22.7727 5.112C22.9327 5.112 23.0127 5.188 23.0127 5.34C23.0127 5.396 22.8087 5.768 22.4007 6.456C22.1927 6.824 22.0247 7.124 21.8967 7.356C21.7767 7.588 21.7007 7.76 21.6687 7.872C21.8447 7.68 22.0527 7.464 22.2927 7.224C22.5407 6.984 22.8247 6.716 23.1447 6.42C24.1287 5.508 24.7767 5.052 25.0887 5.052C25.1767 5.052 25.2607 5.08 25.3407 5.136C25.4287 5.192 25.4727 5.264 25.4727 5.352C25.4727 5.392 25.3167 5.684 25.0047 6.228C24.7007 6.78 24.5327 7.108 24.5007 7.212C25.3887 6.468 25.8327 6.092 25.8327 6.084C26.5847 5.5 27.1247 5.208 27.4527 5.208C27.5487 5.208 27.6367 5.24 27.7167 5.304C27.8047 5.36 27.8487 5.428 27.8487 5.508C27.8487 5.524 27.5927 5.86 27.0807 6.516C26.5527 7.18 26.2567 7.724 26.1927 8.148C26.1607 8.436 26.3087 8.58 26.6367 8.58C26.8367 8.58 27.1167 8.452 27.4767 8.196C27.8367 7.94 28.2127 7.588 28.6047 7.14C28.6527 7.084 28.7047 7.032 28.7607 6.984C28.8167 6.928 28.8647 6.9 28.9047 6.9C28.9527 6.9 28.9767 6.92 28.9767 6.96C28.9767 7.016 28.9407 7.08 28.8687 7.152C28.6607 7.4 28.4127 7.656 28.1247 7.92C27.8447 8.184 27.5647 8.408 27.2847 8.592C27.0047 8.768 26.7567 8.856 26.5407 8.856C25.9967 8.856 25.7247 8.604 25.7247 8.1C25.7247 7.924 25.7727 7.72 25.8687 7.488C25.9647 7.248 26.0607 7.032 26.1567 6.84C26.3887 6.392 26.6407 5.996 26.9127 5.652C26.6567 5.78 26.3887 5.948 26.1087 6.156C25.8367 6.364 25.5527 6.608 25.2567 6.888C24.5687 7.56 24.0967 8.24 23.8407 8.928C23.8007 8.992 23.7327 9.024 23.6367 9.024Z" fill="black"/>
<path d="M16.0664 9.024C15.8744 9.024 15.7784 8.916 15.7784 8.7C15.8664 8.252 16.0464 7.748 16.3184 7.188C16.4464 6.916 16.5744 6.648 16.7024 6.384C16.8384 6.12 16.9704 5.852 17.0984 5.58C16.8024 5.78 16.5064 6.004 16.2104 6.252C15.9144 6.492 15.6264 6.764 15.3464 7.068C15.0184 7.42 14.6384 7.872 14.2064 8.424C13.8944 8.816 13.7144 9.012 13.6664 9.012C13.5544 9.012 13.4624 8.96 13.3904 8.856C13.3184 8.752 13.2824 8.664 13.2824 8.592C13.2824 8.488 13.3744 8.22 13.5584 7.788C13.6144 7.652 13.6704 7.52 13.7264 7.392C13.7904 7.256 13.8504 7.124 13.9064 6.996L13.1864 7.752C13.1704 7.768 13.1224 7.816 13.0424 7.896C12.9624 7.976 12.8984 8.016 12.8504 8.016C12.8104 8.016 12.7904 7.988 12.7904 7.932C12.7904 7.916 12.7984 7.896 12.8144 7.872C12.8224 7.84 12.8464 7.804 12.8864 7.764C13.0064 7.644 13.1304 7.516 13.2584 7.38C13.3864 7.244 13.5184 7.088 13.6544 6.912C13.7584 6.776 13.9064 6.576 14.0984 6.312C14.2984 6.04 14.5424 5.7 14.8304 5.292C14.9184 5.172 15.0424 5.112 15.2024 5.112C15.3624 5.112 15.4424 5.188 15.4424 5.34C15.4424 5.396 15.2384 5.768 14.8304 6.456C14.6224 6.824 14.4544 7.124 14.3264 7.356C14.2064 7.588 14.1304 7.76 14.0984 7.872C14.2744 7.68 14.4824 7.464 14.7224 7.224C14.9704 6.984 15.2544 6.716 15.5744 6.42C16.5584 5.508 17.2064 5.052 17.5184 5.052C17.6064 5.052 17.6904 5.08 17.7704 5.136C17.8584 5.192 17.9024 5.264 17.9024 5.352C17.9024 5.392 17.7464 5.684 17.4344 6.228C17.1304 6.78 16.9624 7.108 16.9304 7.212C17.8184 6.468 18.2624 6.092 18.2624 6.084C19.0144 5.5 19.5544 5.208 19.8824 5.208C19.9784 5.208 20.0664 5.24 20.1464 5.304C20.2344 5.36 20.2784 5.428 20.2784 5.508C20.2784 5.524 20.0224 5.86 19.5104 6.516C18.9824 7.18 18.6864 7.724 18.6224 8.148C18.5904 8.436 18.7384 8.58 19.0664 8.58C19.2664 8.58 19.5464 8.452 19.9064 8.196C20.2664 7.94 20.6424 7.588 21.0344 7.14C21.0824 7.084 21.1344 7.032 21.1904 6.984C21.2464 6.928 21.2944 6.9 21.3344 6.9C21.3824 6.9 21.4064 6.92 21.4064 6.96C21.4064 7.016 21.3704 7.08 21.2984 7.152C21.0904 7.4 20.8424 7.656 20.5544 7.92C20.2744 8.184 19.9944 8.408 19.7144 8.592C19.4344 8.768 19.1864 8.856 18.9704 8.856C18.4264 8.856 18.1544 8.604 18.1544 8.1C18.1544 7.924 18.2024 7.72 18.2984 7.488C18.3944 7.248 18.4904 7.032 18.5864 6.84C18.8184 6.392 19.0704 5.996 19.3424 5.652C19.0864 5.78 18.8184 5.948 18.5384 6.156C18.2664 6.364 17.9824 6.608 17.6864 6.888C16.9984 7.56 16.5264 8.24 16.2704 8.928C16.2304 8.992 16.1624 9.024 16.0664 9.024Z" fill="black"/>
<path d="M2.83601 10.392C1.60401 10.288 0.988007 9.65599 0.988007 8.49599C0.988007 7.80799 1.20401 7.07999 1.63601 6.31199C1.89201 5.84799 2.21201 5.39599 2.59601 4.95599C2.98801 4.51599 3.41201 4.11998 3.86801 3.76798C4.33201 3.40798 4.80401 3.12398 5.28401 2.91598C5.77201 2.70798 6.24001 2.60398 6.68801 2.60398C7.48001 2.60398 7.87601 2.89598 7.87601 3.47999C7.87601 3.87199 7.75601 4.30799 7.51601 4.78799C7.27601 5.26799 7.03201 5.57199 6.78401 5.69999C6.76001 5.70798 6.73201 5.71199 6.70001 5.71199C6.67601 5.71199 6.66401 5.70398 6.66401 5.68798L7.06001 5.03999C7.33201 4.59199 7.46801 4.19998 7.46801 3.86398C7.46801 3.62398 7.40401 3.39598 7.27601 3.17999C7.14801 2.96398 6.92001 2.85598 6.59201 2.85598C6.19201 2.85598 5.78001 2.96798 5.35601 3.19198C4.94001 3.41598 4.53601 3.71199 4.14401 4.07999C3.75201 4.44799 3.39601 4.85599 3.07601 5.30399C2.75601 5.74399 2.50001 6.17999 2.30801 6.61199C1.90001 7.53199 1.69601 8.27599 1.69601 8.84399C1.69601 9.69999 2.13201 10.128 3.00401 10.128C3.83601 10.128 4.96401 9.59198 6.38801 8.51998C6.71601 8.27198 7.13601 7.92399 7.64801 7.47599C8.16801 7.02798 8.77601 6.48399 9.47201 5.84399C9.37601 5.85198 9.25601 5.86398 9.11201 5.87998C8.96801 5.88798 8.80001 5.90798 8.60801 5.93998C8.52801 5.95598 8.45201 5.97199 8.38001 5.98799C8.30801 5.99599 8.24001 5.99999 8.17601 5.99999C8.01601 5.98399 7.94801 5.94398 7.97201 5.87998C8.00401 5.58398 8.15601 5.43599 8.42801 5.43599C8.67601 5.46799 8.90801 5.49199 9.12401 5.50799C9.34801 5.52399 9.56001 5.53199 9.76001 5.53199C10.072 5.24399 10.484 4.84399 10.996 4.33198C11.516 3.81199 12.132 3.17598 12.844 2.42398C13.764 1.45598 14.324 0.971985 14.524 0.971985C14.612 0.971985 14.656 1.05198 14.656 1.21198C14.656 1.27598 14.648 1.35598 14.632 1.45199C14.616 1.54798 14.592 1.65998 14.56 1.78799C14.48 2.09198 14.396 2.27599 14.308 2.33999C14.06 2.51598 13.852 2.74398 13.684 3.02398C13.524 3.29598 13.36 3.59999 13.192 3.93599C13.024 4.27999 12.868 4.58799 12.724 4.85998C12.588 5.12399 12.464 5.35999 12.352 5.56799L13.516 5.54398C13.804 5.54398 13.948 5.56398 13.948 5.60398C13.948 5.61198 13.94 5.62399 13.924 5.63999C13.788 5.72798 13.212 5.80798 12.196 5.87998C11.452 7.32799 11.08 8.31999 11.08 8.85599C11.08 9.22399 11.196 9.40799 11.428 9.40799C11.516 9.40799 11.628 9.35198 11.764 9.23998C11.892 9.13598 11.972 9.08398 12.004 9.08398C12.004 9.06798 12.008 9.06399 12.016 9.07199C12.024 9.07999 12.02 9.08398 12.004 9.08398C11.964 9.22798 11.844 9.35599 11.644 9.46799C11.452 9.58799 11.248 9.64799 11.032 9.64799C10.832 9.64799 10.7 9.58399 10.636 9.45599C10.572 9.32799 10.54 9.15199 10.54 8.92799C10.54 8.11999 10.848 7.09199 11.464 5.84399L10.024 5.87998C8.95201 6.92798 7.87601 7.84799 6.79601 8.63999C5.07601 9.88799 3.75601 10.472 2.83601 10.392ZM11.572 5.53199C11.668 5.34799 11.86 5.01599 12.148 4.53598C12.436 4.04798 12.824 3.41598 13.312 2.63998L10.24 5.51998L11.572 5.53199Z" fill="black"/>
</svg>
